<?xml version="1.0" encoding="utf-8"?>
<!-- Generator: Adobe Illustrator 17.0.0, SVG Export Plug-In . SVG Version: 6.00 Build 0)  -->
<!DOCTYPE svg PUBLIC "-//W3C//DTD SVG 1.1//EN" "http://www.w3.org/Graphics/SVG/1.1/DTD/svg11.dtd">
<svg version="1.1" id="Layer_1" xmlns="http://www.w3.org/2000/svg" xmlns:xlink="http://www.w3.org/1999/xlink" x="0px" y="0px"
	 width="128px" height="128px" viewBox="0 0 128 128" xml:space="preserve">
<path fill="#3AB83A" d="M64,128V91L25,70L64,128z"/>
<path fill="#3AB83A" d="M64,67l-37-3l37-21V67z"/>
<path fill="#3AB83A" d="M64,0L25,58l39-22V0z"/>
<path fill="#0B8311" d="M64,91l39-21c-14.063,21.167-39,58-39,58V91z"/>
<path fill="#0B8311" d="M64,43l37,21l-37,3V43z"/>
<path fill="#0B8311" d="M64,36V0l39,58L64,36z"/>
<path fill="#0B8311" d="M64,84L27,64l37,3.01V84z"/>
<path fill="#146714" d="M64,67.01L101,64L64,84V67.01z"/>
</svg>
