<?xml version="1.0" encoding="utf-8"?>
<!-- Generator: Adobe Illustrator 17.0.0, SVG Export Plug-In . SVG Version: 6.00 Build 0)  -->
<!DOCTYPE svg PUBLIC "-//W3C//DTD SVG 1.1//EN" "http://www.w3.org/Graphics/SVG/1.1/DTD/svg11.dtd">
<svg version="1.1" id="Layer_1" xmlns="http://www.w3.org/2000/svg" xmlns:xlink="http://www.w3.org/1999/xlink" x="0px" y="0px"
	 width="420px" height="420px" viewBox="0 0 420 420" enable-background="new 0 0 420 420" xml:space="preserve">
<polygon fill="#3AB83A" points="157.5,35 105,35 105,105 175,105 "/>
<polygon fill="#3AB83A" points="315,35 262.5,35 245,105 315,105 "/>
<polygon fill="#3AB83A" points="227.5,227.5 245,105 175,105 192.5,227.5 "/>
<polygon fill="#3AB83A" points="315,105 315,175 227.5,227.5 245,280 175,280 192.5,227.5 105,175 105,105 35,105 35,157.5 35,175 
	105,245 105,315 35,245 35,315 105,385 192.5,385 175,332.5 245,332.5 227.5,385 315,385 385,315 385,245 315,315 315,245 385,175 
	385,157.5 385,105 "/>
<polygon fill="#00FF00" points="166.25,183.75 122.5,157.5 122.5,122.5 157.5,122.5 "/>
<polygon fill="#00FF00" points="297.5,157.5 253.75,183.75 262.5,122.5 297.5,122.5 "/>
</svg>
